<?xml version="1.0" standalone="no"?><!DOCTYPE svg PUBLIC "-//W3C//DTD SVG 1.1//EN" "http://www.w3.org/Graphics/SVG/1.1/DTD/svg11.dtd"><svg t="1681529154468" class="icon" viewBox="0 0 1024 1024" version="1.1" xmlns="http://www.w3.org/2000/svg" p-id="1811" xmlns:xlink="http://www.w3.org/1999/xlink" width="200" height="200"><path d="M64 192c0-35.4 28.6-64 64-64h768c35.4 0 64 28.6 64 64s-28.6 64-64 64H128c-35.4 0-64-28.6-64-64z m0 320c0-35.4 28.6-64 64-64h768c35.4 0 64 28.6 64 64s-28.6 64-64 64H128c-35.4 0-64-28.6-64-64z m896 320c0 35.4-28.6 64-64 64H128c-35.4 0-64-28.6-64-64s28.6-64 64-64h768c35.4 0 64 28.6 64 64z" p-id="1812" fill="#13227a"></path></svg>